<svg xmlns="http://www.w3.org/2000/svg" viewBox="0 0 32 32">
  <circle cx="16" cy="16" r="16" fill="#25D366"/>
  <path fill="#FFFFFF" d="M22.5 18.7c-.3-.2-1.8-.9-2.1-1s-.5-.2-.7.2c-.2.3-.8 1-.9 1.1-.2.2-.3.2-.6.1-.3-.2-1.3-.5-2.5-1.6-.9-.8-1.6-1.8-1.8-2.1-.2-.3 0-.4.1-.6.1-.1.3-.3.4-.5.1-.2.2-.3.3-.5.1-.2 0-.4 0-.6 0-.2-.7-1.6-1-2.2-.3-.6-.6-.5-.8-.5h-.7c-.2 0-.6.1-.9.4-.3.3-1.1 1-1.1 2.5s1.1 2.9 1.2 3.1c.2.2 2.2 3.4 5.4 4.7.8.3 1.4.5 1.9.6.8.3 1.5.2 2.1.1.6-.1 1.8-.7 2-1.4.3-.7.3-1.3.2-1.4-.1-.2-.3-.3-.6-.4z"/>
</svg>
